<?xml version="1.0" standalone="no"?>
<!DOCTYPE svg PUBLIC "-//W3C//DTD SVG 20010904//EN"
 "http://www.w3.org/TR/2001/REC-SVG-20010904/DTD/svg10.dtd">
<svg version="1.0" xmlns="http://www.w3.org/2000/svg"
 width="700.000000pt" height="700.000000pt" viewBox="0 0 700.000000 700.000000"
 preserveAspectRatio="xMidYMid meet">
<metadata>
Created by potrace 1.14, written by Peter Selinger 2001-2017
</metadata>
<g transform="translate(0.000000,700.000000) scale(0.100000,-0.100000)"
fill="#000000" stroke="none">
<path d="M3998 6995 c-2 -1 -32 -5 -68 -9 -80 -7 -148 -15 -176 -21 -12 -3
-39 -7 -60 -10 -106 -16 -411 -102 -499 -140 -315 -138 -382 -174 -649 -355
-73 -49 -256 -209 -344 -300 -295 -304 -503 -637 -646 -1037 -69 -192 -123
-439 -142 -653 -3 -36 -7 -81 -9 -100 -2 -19 -4 -65 -4 -102 l-1 -68 -700 0
-700 0 0 -2100 0 -2100 2100 0 2100 0 0 700 0 700 48 1 c102 1 285 15 322 24
3 0 32 5 65 9 32 4 68 10 80 13 11 2 31 6 45 9 409 84 820 272 1145 523 189
146 415 373 528 531 9 14 36 52 60 85 83 117 150 231 222 379 100 206 167 392
211 586 8 36 16 72 18 81 3 9 7 34 10 55 4 22 8 46 11 54 3 15 8 53 25 210 12
115 4 481 -14 605 -33 234 -76 406 -157 623 -289 772 -920 1386 -1704 1659
-82 28 -256 76 -335 92 -30 6 -66 14 -80 16 -117 24 -275 38 -472 40 -124 2
-228 2 -230 0z m202 -4196 l0 -1401 -142 7 c-78 3 -144 8 -147 9 -3 2 -37 7
-74 11 -78 7 -70 6 -237 41 -119 25 -368 101 -455 139 -76 34 -300 144 -355
176 -54 31 -243 156 -278 183 -239 192 -393 348 -547 551 -262 349 -442 757
-520 1182 -3 16 -7 37 -9 48 -2 11 -7 49 -11 85 -4 36 -9 76 -11 90 -2 14 -6
82 -10 153 l-6 127 1401 0 1401 0 0 -1401z"/>
</g>
</svg>
